<?xml version="1.0" encoding="utf-8"?>
<!-- Generator: Adobe Illustrator 19.0.0, SVG Export Plug-In . SVG Version: 6.00 Build 0)  -->
<svg version="1.1" id="Layer_2" xmlns="http://www.w3.org/2000/svg" xmlns:xlink="http://www.w3.org/1999/xlink" x="0px" y="0px"
	 viewBox="-270 263.3 300 70" style="enable-background:new -270 263.3 300 70;" xml:space="preserve">
<style type="text/css">
	.st0{fill:#FFFFFF;}
</style>
<g id="XMLID_4_">
	<g id="XMLID_54_">
		<path id="XMLID_71_" class="st0" d="M-236.1,297.6h-9c-0.2-0.7-0.5-1.4-0.9-2.1c-0.4-0.7-0.8-1.3-1.4-1.8
			c-0.6-0.5-1.3-0.9-2.2-1.2c-0.9-0.3-1.9-0.5-3.1-0.5c-1.8,0-3.2,0.3-4.3,1c-1.1,0.7-1.9,1.5-2.5,2.5c-0.6,1-1,2-1.2,3.2
			c-0.2,1.1-0.3,2.2-0.3,3.1c0,1,0.1,2,0.3,3.1c0.2,1.1,0.6,2.2,1.2,3.2c0.6,1,1.4,1.8,2.5,2.5c1.1,0.7,2.5,1,4.3,1
			c2.4,0,4.1-0.6,5.3-1.7c1.2-1.1,2-2.4,2.4-3.9h8.9c-0.3,1.7-0.8,3.3-1.4,4.5c-0.7,1.3-1.4,2.4-2.2,3.3c-0.8,0.9-1.7,1.7-2.7,2.3
			c-1,0.6-1.9,1.1-2.9,1.5c-2.3,0.9-4.7,1.4-7.4,1.4c-3.2,0-6.1-0.7-8.6-1.8c-1.1-0.5-2.1-1.2-3.1-2c-1-0.8-2-1.8-2.7-3
			c-0.8-1.2-1.4-2.7-1.9-4.4c-0.5-1.7-0.7-3.7-0.7-6c0-2.3,0.2-4.3,0.7-6c0.5-1.7,1.1-3.2,2-4.4c0.8-1.2,1.7-2.3,2.7-3.1
			c1-0.8,2.1-1.5,3.2-2c2.5-1.2,5.4-1.9,8.6-2c2.6,0.1,5.1,0.6,7.4,1.5c1,0.4,1.9,0.9,2.9,1.5c1,0.6,1.9,1.4,2.7,2.4
			c0.8,1,1.6,2.1,2.2,3.4C-236.8,294.4-236.4,295.9-236.1,297.6z"/>
		<path id="XMLID_68_" class="st0" d="M-231.9,301.8c0-2.3,0.2-4.3,0.7-6c0.5-1.7,1.1-3.2,1.9-4.4c0.8-1.2,1.7-2.3,2.7-3.1
			c1-0.8,2.1-1.5,3.1-2c2.5-1.2,5.4-1.9,8.6-2c3.2,0.1,6,0.7,8.5,2c1.1,0.5,2.1,1.2,3.1,2c1,0.8,2,1.9,2.7,3.1
			c0.8,1.2,1.4,2.7,2,4.4c0.5,1.7,0.8,3.7,0.8,6c0,2.3-0.3,4.3-0.8,6c-0.5,1.7-1.2,3.2-2,4.4c-0.8,1.2-1.7,2.2-2.7,3
			c-1,0.8-2.1,1.5-3.1,2c-2.5,1.2-5.3,1.8-8.5,1.8c-3.2,0-6.1-0.7-8.6-1.8c-1.1-0.5-2.1-1.2-3.1-2c-1-0.8-2-1.8-2.7-3
			c-0.8-1.2-1.4-2.7-1.9-4.4C-231.7,306-231.9,304-231.9,301.8z M-214.8,292c-1.8,0-3.2,0.3-4.3,1c-1.1,0.7-1.9,1.5-2.5,2.5
			c-0.6,1-1,2-1.2,3.2c-0.2,1.1-0.3,2.2-0.3,3.1c0,1,0.1,2,0.3,3.1c0.2,1.1,0.6,2.2,1.2,3.2c0.6,1,1.4,1.8,2.5,2.5
			c1.1,0.7,2.5,1,4.3,1c1.8,0,3.2-0.3,4.3-1c1.1-0.7,1.9-1.5,2.5-2.5c0.6-1,1-2,1.2-3.2c0.2-1.1,0.3-2.2,0.3-3.1c0-1-0.1-2-0.3-3.1
			c-0.2-1.1-0.6-2.2-1.2-3.2c-0.6-1-1.4-1.8-2.5-2.5C-211.6,292.3-213,292-214.8,292z"/>
		<path id="XMLID_65_" class="st0" d="M-169.8,301.8c0-1-0.1-1.9-0.2-2.9c-0.1-1-0.4-1.9-0.9-2.7c-0.5-0.8-1.2-1.5-2.2-2.1
			c-1-0.5-2.4-0.8-4.2-0.8c-1.8,0-3.2,0.3-4.2,0.8c-1,0.5-1.7,1.2-2.2,2.1c-0.5,0.8-0.8,1.7-0.9,2.7c-0.1,1-0.2,2-0.2,2.9v16.6h-8.8
			v-16.6c0-2.3,0.2-4.3,0.7-6c0.5-1.7,1.1-3.2,1.8-4.4c0.8-1.2,1.6-2.3,2.6-3.1c1-0.8,2-1.5,3-2c2.4-1.2,5.1-1.9,8.2-2
			c3,0.1,5.7,0.7,8.1,2c1,0.5,2,1.2,3,2c1,0.8,1.9,1.9,2.6,3.1c0.7,1.2,1.4,2.7,1.8,4.4c0.5,1.7,0.7,3.7,0.7,6v16.6h-8.8V301.8z
			 M-146.1,301.8c0-1-0.1-1.9-0.2-2.9c-0.1-1-0.4-1.9-0.9-2.7c-0.5-0.8-1.2-1.5-2.2-2.1c-1-0.5-2.4-0.8-4.2-0.8
			c-1.8,0-3.2,0.3-4.2,0.8c-1,0.5-1.7,1.2-2.2,2.1c-0.5,0.8-0.8,1.7-0.9,2.7c-0.1,1-0.2,2-0.2,2.9v16.6h-8.8v-16.6
			c0-2.3,0.2-4.3,0.7-6c0.5-1.7,1.1-3.2,1.8-4.4c0.8-1.2,1.6-2.3,2.6-3.1c1-0.8,2-1.5,3-2c2.4-1.2,5.1-1.9,8.2-2
			c3,0.1,5.7,0.7,8.1,2c1,0.5,2,1.2,3,2c1,0.8,1.9,1.9,2.6,3.1c0.7,1.2,1.4,2.7,1.8,4.4c0.5,1.7,0.7,3.7,0.7,6v16.6h-8.8V301.8z"/>
		<path id="XMLID_63_" class="st0" d="M-77.8,284.3c0.1,0,0.7,0,1.6,0.1c0.9,0,1.9,0.2,3.1,0.6c1.2,0.3,2.5,0.8,3.8,1.5
			c1.3,0.7,2.6,1.7,3.8,3c1.2,1.3,2.1,3,2.9,4.9s1.1,4.4,1.1,7.4v16.6h-8.8v-16.6c0-1-0.1-1.9-0.3-2.9c-0.2-1-0.6-1.9-1.1-2.7
			c-0.5-0.8-1.3-1.5-2.2-2.1c-1-0.5-2.2-0.8-3.8-0.8c-1.6,0-2.9,0.3-3.8,0.8c-1,0.5-1.7,1.2-2.2,2.1c-0.5,0.8-0.9,1.7-1.1,2.7
			c-0.2,1-0.3,2-0.3,2.9v16.6h-8.8v-16.6c0-2.9,0.4-5.4,1.1-7.4c0.7-2,1.7-3.6,2.9-4.9c1.2-1.3,2.4-2.3,3.8-3
			c1.3-0.7,2.6-1.2,3.8-1.5c1.2-0.3,2.2-0.5,3.1-0.6S-78,284.3-77.8,284.3z"/>
		<path id="XMLID_61_" class="st0" d="M-23.5,297.6h-9c-0.2-0.7-0.5-1.4-0.9-2.1c-0.4-0.7-0.8-1.3-1.4-1.8c-0.6-0.5-1.3-0.9-2.2-1.2
			c-0.9-0.3-1.9-0.5-3.1-0.5c-1.8,0-3.2,0.3-4.3,1c-1.1,0.7-1.9,1.5-2.5,2.5c-0.6,1-1,2-1.2,3.2c-0.2,1.1-0.3,2.2-0.3,3.1
			c0,1,0.1,2,0.3,3.1c0.2,1.1,0.6,2.2,1.2,3.2c0.6,1,1.4,1.8,2.5,2.5c1.1,0.7,2.5,1,4.3,1c2.4,0,4.1-0.6,5.3-1.7
			c1.2-1.1,2-2.4,2.4-3.9h8.9c-0.3,1.7-0.8,3.3-1.4,4.5c-0.6,1.3-1.4,2.4-2.2,3.3c-0.8,0.9-1.7,1.7-2.7,2.3c-1,0.6-1.9,1.1-2.9,1.5
			c-2.3,0.9-4.7,1.4-7.4,1.4c-3.2,0-6.1-0.7-8.6-1.8c-1.1-0.5-2.1-1.2-3.1-2c-1-0.8-2-1.8-2.7-3c-0.8-1.2-1.4-2.7-1.9-4.4
			c-0.5-1.7-0.7-3.7-0.7-6c0-2.3,0.2-4.3,0.7-6c0.5-1.7,1.1-3.2,2-4.4c0.8-1.2,1.7-2.3,2.7-3.1c1-0.8,2.1-1.5,3.2-2
			c2.5-1.2,5.4-1.9,8.6-2c2.6,0.1,5.1,0.6,7.4,1.5c1,0.4,1.9,0.9,2.9,1.5c1,0.6,1.9,1.4,2.7,2.4c0.8,1,1.6,2.1,2.2,3.4
			C-24.3,294.4-23.8,295.9-23.5,297.6z"/>
		<path id="XMLID_58_" class="st0" d="M-18.9,277.7c0-1,0-1.7,0-2.2c0-0.5,0.2-0.8,0.4-1c0.3-0.2,0.7-0.3,1.3-0.4c0.6,0,1.5,0,2.6,0
			c1.2,0,2,0,2.6,0c0.6,0,1,0.1,1.3,0.4c0.3,0.2,0.4,0.6,0.4,1c0,0.5,0,1.2,0,2.2c0,1,0,1.7,0,2.2c0,0.5-0.2,0.8-0.4,1
			c-0.3,0.2-0.7,0.3-1.3,0.4c-0.6,0-1.5,0-2.6,0c-1.2,0-2,0-2.6,0c-0.6,0-1-0.1-1.3-0.4c-0.3-0.2-0.4-0.6-0.4-1
			C-18.9,279.4-18.9,278.7-18.9,277.7z M-10.1,285.1v33.2h-8.8v-33.2H-10.1z"/>
		<path id="XMLID_55_" class="st0" d="M28.7,318.3h-8.6v-4.6l1.6-1.9c-0.8,1.8-1.9,3.2-3.1,4.2c-1.3,1-2.5,1.7-3.7,2.1
			c-1.4,0.5-2.8,0.8-4.3,0.9c-3,0-5.6-0.7-7.9-1.8c-1-0.5-2-1.2-2.9-2c-0.9-0.8-1.8-1.8-2.5-3c-0.7-1.2-1.3-2.7-1.8-4.4
			c-0.5-1.7-0.7-3.7-0.7-6c0-2.3,0.2-4.3,0.7-6c0.5-1.7,1.1-3.2,1.9-4.4c0.8-1.2,1.7-2.3,2.7-3.1c1-0.8,2.1-1.5,3.1-2
			c2.5-1.2,5.4-1.9,8.6-2c3,0,5.6,0.4,7.7,1.2c2.1,0.8,3.9,2,5.2,3.5c1.4,1.5,2.4,3.3,3,5.5s0.9,4.6,0.9,7.4V318.3z M11.8,292
			c-1.8,0-3.2,0.3-4.3,1c-1.1,0.7-1.9,1.5-2.5,2.5c-0.6,1-1,2-1.2,3.2c-0.2,1.1-0.3,2.2-0.3,3.1c0,1,0.1,2,0.3,3.1
			c0.2,1.1,0.6,2.2,1.2,3.2c0.6,1,1.4,1.8,2.5,2.5c1.1,0.7,2.5,1,4.3,1c1.8,0,3.2-0.3,4.3-1c1.1-0.7,1.9-1.5,2.5-2.5
			c0.6-1,1-2,1.2-3.2c0.2-1.1,0.3-2.2,0.3-3.1c0-1.2-0.1-2.3-0.3-3.5c-0.2-1.2-0.5-2.2-1.1-3.1c-0.6-0.9-1.4-1.7-2.5-2.3
			C15.1,292.3,13.6,292,11.8,292z"/>
	</g>
	<path id="XMLID_6_" class="st0" d="M-100.9,294.8c-0.8-2.1-1.9-3.9-3.3-5.4c-1.4-1.5-3.1-2.6-5-3.4c-1.9-0.8-4.1-1.2-6.4-1.2
		c-2.4,0-4.7,0.4-6.7,1.2c-2.1,0.8-3.9,1.9-5.4,3.4c-1.5,1.5-2.7,3.2-3.6,5.3c-0.9,2.1-1.3,4.4-1.3,7c0,0.9,0.1,1.9,0.2,2.7h9.8
		c0,0,0,0,0,0h22.9c0-0.4,0.1-0.8,0.1-1.2V302C-99.8,299.3-100.1,296.9-100.9,294.8 M-122.7,298c0-0.8,0.3-1.6,0.6-2.3
		c0.4-0.7,0.9-1.4,1.5-1.9c0.6-0.6,1.4-1,2.2-1.3c0.8-0.3,1.8-0.5,2.8-0.5c2.1,0,3.6,0.6,4.7,1.8c1,1.2,1.6,2.6,1.6,4.3H-122.7z"/>
	<path id="XMLID_5_" class="st0" d="M-108.6,307.6c-0.7,1-1.7,1.8-2.8,2.4c-1.1,0.6-2.5,0.9-4.2,0.9c-0.9,0-1.8-0.1-2.7-0.4
		c-0.9-0.3-1.7-0.7-2.4-1.2c-0.7-0.5-1.3-1.2-1.7-1.9c-0.1-0.2-0.2-0.4-0.3-0.5h-9.9c0.2,0.9,0.5,1.7,0.8,2.5
		c0.9,2.1,2.2,3.8,3.7,5.2c1.6,1.4,3.4,2.5,5.6,3.2c2.1,0.7,4.4,1.1,6.7,1.1c3.2,0,6-0.6,8.5-1.7c2.4-1.2,4.4-2.8,5.9-5
		L-108.6,307.6z"/>
</g>
</svg>
